<svg width="1921" height="106" viewBox="0 0 1921 106" fill="none" xmlns="http://www.w3.org/2000/svg">
<path opacity="0.5" d="M645.534 52.8402L0.104492 52.8401L0.104492 2.92009L1920.1 2.92009L1920.1 52.8403L1274.67 52.8403C1274.04 52.8403 1273.43 53.039 1272.92 53.4082L1223.97 88.7605C1218.86 92.4528 1212.71 94.4401 1206.4 94.4401L713.805 94.4401C707.499 94.4401 701.353 92.4528 696.24 88.7605L647.291 53.4081C646.78 53.0389 646.165 52.8402 645.534 52.8402Z" fill="url(#paint0_linear_168_13767)"/>
<path d="M0.104492 52.2002L645.534 52.2003C646.165 52.2003 646.78 52.399 647.291 52.7682L696.24 88.1206C701.353 91.8129 707.499 93.8002 713.805 93.8002L1206.4 93.8002C1212.71 93.8002 1218.86 91.8129 1223.97 88.1206L1272.92 52.7683C1273.43 52.3991 1274.04 52.2004 1274.67 52.2004L1920.1 52.2004" stroke="url(#paint1_linear_168_13767)" stroke-width="3"/>
<path d="M561.732 38.414C561.919 38.2265 562.174 38.1211 562.439 38.1211H632.148C632.329 38.1211 632.507 38.1704 632.662 38.2636L642.129 43.9436C642.999 44.4654 642.629 45.8011 641.614 45.8011H556.759C555.868 45.8011 555.422 44.724 556.052 44.094L561.732 38.414Z" fill="#5FB1FC"/>
<path d="M1357.2 38.414C1357.01 38.2265 1356.75 38.1211 1356.49 38.1211H1286.78C1286.6 38.1211 1286.42 38.1704 1286.27 38.2636L1276.8 43.9436C1275.93 44.4654 1276.3 45.8011 1277.31 45.8011H1362.17C1363.06 45.8011 1363.51 44.724 1362.88 44.094L1357.2 38.414Z" fill="#5FB1FC"/>
<path d="M932.585 24.0418L554.985 24.0418L540.265 38.1209L4.58498 38.121" stroke="url(#paint2_linear_168_13767)"/>
<rect x="524.802" y="21.4824" width="3.94376" height="10.24" fill="#5FB1FC"/>
<rect opacity="0.5" x="514.939" y="21.4824" width="3.94376" height="10.24" fill="#5FB1FC"/>
<rect opacity="0.2" x="505.082" y="21.4824" width="3.94376" height="10.24" fill="#5FB1FC"/>
<rect opacity="0.1" x="495.224" y="21.4824" width="3.94376" height="10.24" fill="#5FB1FC"/>
<rect opacity="0.2" x="485.362" y="21.4824" width="3.94376" height="10.24" fill="#5FB1FC"/>
<rect opacity="0.3" x="475.504" y="21.4824" width="3.94376" height="10.24" fill="#5FB1FC"/>
<rect opacity="0.4" x="465.643" y="21.4824" width="3.94376" height="10.24" fill="#5FB1FC"/>
<rect opacity="0.6" x="455.784" y="21.4824" width="3.94376" height="10.24" fill="#5FB1FC"/>
<path d="M0.104492 1H37.2284L48.3655 11.88H134.493L144.145 17.64H245.864" stroke="url(#paint3_linear_168_13767)"/>
<rect opacity="0.6" x="244.585" y="15.0811" width="5.12" height="5.12" fill="#5FB1FC"/>
<rect opacity="0.8" x="134.505" y="22.7607" width="2.56" height="2.56" fill="#5FB1FC"/>
<rect opacity="0.4" x="931.944" y="22.7607" width="2.56" height="2.56" fill="#5FB1FC"/>
<path d="M987.625 24.0418L1365.22 24.0418L1379.94 38.1209L1915.62 38.121" stroke="url(#paint4_linear_168_13767)"/>
<rect width="3.94376" height="10.24" transform="matrix(-1 0 0 1 1395.41 21.4824)" fill="#5FB1FC"/>
<rect opacity="0.5" width="3.94376" height="10.24" transform="matrix(-1 0 0 1 1405.27 21.4824)" fill="#5FB1FC"/>
<rect opacity="0.2" width="3.94376" height="10.24" transform="matrix(-1 0 0 1 1415.13 21.4824)" fill="#5FB1FC"/>
<rect opacity="0.1" width="3.94376" height="10.24" transform="matrix(-1 0 0 1 1424.99 21.4824)" fill="#5FB1FC"/>
<rect opacity="0.2" width="3.94376" height="10.24" transform="matrix(-1 0 0 1 1434.85 21.4824)" fill="#5FB1FC"/>
<rect opacity="0.3" width="3.94376" height="10.24" transform="matrix(-1 0 0 1 1444.71 21.4824)" fill="#5FB1FC"/>
<rect opacity="0.4" width="3.94376" height="10.24" transform="matrix(-1 0 0 1 1454.57 21.4824)" fill="#5FB1FC"/>
<rect opacity="0.6" width="3.94376" height="10.24" transform="matrix(-1 0 0 1 1464.42 21.4824)" fill="#5FB1FC"/>
<path d="M1920.1 1H1882.98L1871.84 11.88H1785.72L1776.06 17.64H1674.34" stroke="url(#paint5_linear_168_13767)"/>
<rect opacity="0.6" width="5.12" height="5.12" transform="matrix(-1 0 0 1 1675.62 15.0811)" fill="#5FB1FC"/>
<rect opacity="0.8" width="2.56" height="2.56" transform="matrix(-1 0 0 1 1785.7 22.7607)" fill="#5FB1FC"/>
<rect opacity="0.4" width="2.56" height="2.56" transform="matrix(-1 0 0 1 988.265 22.7607)" fill="#5FB1FC"/>
<path d="M153.704 93.1592H629.224L652.904 104.679" stroke="url(#paint6_linear_168_13767)"/>
<path d="M641.384 105.32L646.331 102.12L652.904 105.32H641.384Z" fill="#5FB1FC"/>
<path d="M1766.5 93.1592H1290.98L1267.3 104.679" stroke="url(#paint7_linear_168_13767)"/>
<path d="M1278.82 105.32L1273.88 102.12L1267.3 105.32H1278.82Z" fill="#5FB1FC"/>
<defs>
<linearGradient id="paint0_linear_168_13767" x1="0.104482" y1="48.68" x2="1920.1" y2="48.68" gradientUnits="userSpaceOnUse">
<stop stop-color="#508DEA" stop-opacity="0"/>
<stop offset="1" stop-color="#508DEA" stop-opacity="0.66"/>
</linearGradient>
<linearGradient id="paint1_linear_168_13767" x1="0.104492" y1="100.84" x2="1920.1" y2="100.84" gradientUnits="userSpaceOnUse">
<stop stop-color="#508DEA" stop-opacity="0.2"/>
<stop offset="0.53125" stop-color="#97C1FF"/>
<stop offset="1" stop-color="#508DEA" stop-opacity="0.2"/>
</linearGradient>
<linearGradient id="paint2_linear_168_13767" x1="774.505" y1="31.7295" x2="36.5839" y2="31.7295" gradientUnits="userSpaceOnUse">
<stop stop-color="#5582CB" stop-opacity="0.05"/>
<stop offset="0.526042" stop-color="#5582CB" stop-opacity="0.473958"/>
<stop offset="1" stop-color="#5582CB" stop-opacity="0"/>
</linearGradient>
<linearGradient id="paint3_linear_168_13767" x1="-1.38046" y1="5.47999" x2="246.607" y2="5.47999" gradientUnits="userSpaceOnUse">
<stop stop-color="#597EBC" stop-opacity="0"/>
<stop offset="1" stop-color="#597EBC" stop-opacity="0.33"/>
</linearGradient>
<linearGradient id="paint4_linear_168_13767" x1="1145.71" y1="31.7295" x2="1883.63" y2="31.7295" gradientUnits="userSpaceOnUse">
<stop stop-color="#5582CB" stop-opacity="0.05"/>
<stop offset="0.526042" stop-color="#5582CB" stop-opacity="0.473958"/>
<stop offset="1" stop-color="#5582CB" stop-opacity="0"/>
</linearGradient>
<linearGradient id="paint5_linear_168_13767" x1="1921.59" y1="5.47999" x2="1673.6" y2="5.47999" gradientUnits="userSpaceOnUse">
<stop stop-color="#597EBC" stop-opacity="0"/>
<stop offset="1" stop-color="#597EBC" stop-opacity="0.33"/>
</linearGradient>
<linearGradient id="paint6_linear_168_13767" x1="153.704" y1="93.1592" x2="652.904" y2="93.1592" gradientUnits="userSpaceOnUse">
<stop stop-color="#5FB1FC" stop-opacity="0.21"/>
<stop offset="1" stop-color="#5FB1FC" stop-opacity="0.5"/>
</linearGradient>
<linearGradient id="paint7_linear_168_13767" x1="1766.5" y1="93.1592" x2="1267.3" y2="93.1592" gradientUnits="userSpaceOnUse">
<stop stop-color="#5FB1FC" stop-opacity="0.21"/>
<stop offset="1" stop-color="#5FB1FC" stop-opacity="0.5"/>
</linearGradient>
</defs>
</svg>
